<svg width="24" height="24" viewBox="0 0 24 24" fill="none" xmlns="http://www.w3.org/2000/svg">
<path d="M2.40457 11.9712C3.28057 13.9113 4.77247 16.0131 6.49747 17.7381C8.33737 19.578 10.3672 21.0351 12.2131 21.8403C13.2181 22.2789 14.1172 22.4982 14.8741 22.4982C15.6265 22.4982 16.2382 22.281 16.6723 21.8466L18.4135 20.106C18.9424 19.5765 18.895 18.6681 18.3076 18.0804L15.742 15.5145C15.154 14.9271 14.245 14.88 13.7164 15.4089L12.9175 16.2078C12.6961 16.3734 11.3278 15.9519 9.78847 14.4126C8.24827 12.8727 7.82587 11.5035 7.99237 11.2842L8.79217 10.4844C9.32107 9.9552 9.27367 9.0462 8.68627 8.4588L6.12007 5.8932C5.53207 5.3058 4.62367 5.2581 4.09447 5.7876L2.35387 7.5282C1.48477 8.397 1.50277 9.975 2.40427 11.9712H2.40457ZM3.20257 8.3766L4.94347 6.636C4.95547 6.624 4.97947 6.6168 5.01037 6.6168C5.07817 6.6168 5.18107 6.6507 5.27197 6.7416L7.83757 9.3072C7.97017 9.4398 7.98157 9.5979 7.94347 9.636L7.14367 10.4355C6.14947 11.4303 7.29457 13.6158 8.93977 15.261C9.75907 16.08 10.66 16.7346 11.4766 17.1033C12.8206 17.7105 13.4875 17.3349 13.765 17.0568L14.5648 16.2573C14.6032 16.2189 14.7607 16.2306 14.8936 16.3629L17.4589 18.9288C17.5915 19.0614 17.6029 19.2192 17.5648 19.2573L15.8239 20.9982C15.3409 21.4815 14.1706 21.3852 12.6931 20.7402C10.9813 19.9935 9.08227 18.6258 7.34587 16.8897C5.71927 15.2631 4.31707 13.29 3.49807 11.4771C2.83627 10.0122 2.72557 8.8533 3.20227 8.3766H3.20257ZM22.2886 13.3011C22.2886 6.7941 16.9945 1.5 10.4875 1.5V2.7C16.333 2.7 21.0886 7.4559 21.0886 13.3011H22.2886Z" fill="white"/>
<path d="M10.71 4.77734V5.97734C14.871 5.97734 18.2565 9.36254 18.2565 13.5235H19.4565C19.4565 8.70074 15.5328 4.77734 10.7103 4.77734H10.71Z" fill="white"/>
<path d="M15.2017 13.5236H16.4017C16.4017 10.3856 13.8487 7.83203 10.7104 7.83203V9.03203C13.1869 9.03203 15.2017 11.0471 15.2017 13.5236Z" fill="white"/>
</svg>
