<svg width="76" height="76" viewBox="0 0 76 76" fill="none" xmlns="http://www.w3.org/2000/svg">
<path d="M34.1848 1.35793L38 1.15799L41.8152 1.35793L45.5885 1.95557L49.2787 2.94436L52.8453 4.31346L56.2493 6.04788L59.4534 8.12861L62.4223 10.5328L65.1238 13.2343L67.528 16.2033L69.6087 19.4073L71.3432 22.8113L72.7122 26.3779L73.701 30.0682L74.2987 33.8415L74.4986 37.6566L74.2987 41.4718L73.701 45.2451L72.7122 48.9353L71.3432 52.5019L69.6087 55.9059L67.528 59.11L65.1238 62.0789L62.4223 64.7804L59.4534 67.1846L56.2493 69.2654L52.8453 70.9998L49.2787 72.3689L45.5885 73.3577L41.8151 73.9553L38 74.1552L34.1849 73.9553L30.4115 73.3577L26.7213 72.3689L23.1547 70.9998L19.7507 69.2654L16.5466 67.1846L13.5777 64.7804L10.8762 62.079L8.472 59.11L6.39126 55.9059L4.65684 52.5019L3.28774 48.9353L2.29895 45.2451L1.70132 41.4718L1.50137 37.6566L1.70132 33.8415L2.29896 30.0681L3.28774 26.3779L4.65684 22.8113L6.39126 19.4073L8.47199 16.2033L10.8762 13.2343L13.5776 10.5329L16.5466 8.12861L19.7507 6.04788L23.1547 4.31346L26.7213 2.94436L30.4115 1.95557L34.1848 1.35793Z" stroke="url(#paint0_linear_418_487)" stroke-width="2"/>
<g clip-path="url(#clip0_418_487)">
<path d="M52.75 37.4066H49.75C49.5511 37.4066 49.3603 37.4856 49.2197 37.6263C49.079 37.7669 49 37.9577 49 38.1566C49 38.3555 49.079 38.5463 49.2197 38.687C49.3603 38.8276 49.5511 38.9066 49.75 38.9066H51.25V40.4066C51.25 40.6055 51.329 40.7963 51.4697 40.937C51.6103 41.0776 51.8011 41.1566 52 41.1566C52.1989 41.1566 52.3897 41.0776 52.5303 40.937C52.671 40.7963 52.75 40.6055 52.75 40.4066V38.9066C53.3467 38.9066 53.919 38.6696 54.341 38.2476C54.7629 37.8257 55 37.2534 55 36.6566V35.1566C55 34.5599 54.7629 33.9876 54.341 33.5656C53.919 33.1437 53.3467 32.9066 52.75 32.9066H51.25C51.0511 32.9066 50.8603 32.8276 50.7197 32.687C50.579 32.5463 50.5 32.3555 50.5 32.1566V30.6566C50.5 30.4577 50.579 30.2669 50.7197 30.1263C50.8603 29.9856 51.0511 29.9066 51.25 29.9066H54.25C54.4489 29.9066 54.6397 29.8276 54.7803 29.687C54.921 29.5463 55 29.3555 55 29.1566C55 28.9577 54.921 28.7669 54.7803 28.6263C54.6397 28.4856 54.4489 28.4066 54.25 28.4066H52.75V26.9066C52.75 26.7077 52.671 26.5169 52.5303 26.3763C52.3897 26.2356 52.1989 26.1566 52 26.1566C51.8011 26.1566 51.6103 26.2356 51.4697 26.3763C51.329 26.5169 51.25 26.7077 51.25 26.9066V28.4066C50.6533 28.4066 50.081 28.6437 49.659 29.0656C49.2371 29.4876 49 30.0599 49 30.6566V32.1566C49 32.7534 49.2371 33.3257 49.659 33.7476C50.081 34.1696 50.6533 34.4066 51.25 34.4066H52.75C52.9489 34.4066 53.1397 34.4856 53.2803 34.6263C53.421 34.7669 53.5 34.9577 53.5 35.1566V36.6566C53.5 36.8555 53.421 37.0463 53.2803 37.187C53.1397 37.3276 52.9489 37.4066 52.75 37.4066ZM59.89 48.8066L44.5 50.0921V48.2546C44.5055 47.124 44.1434 46.0221 43.4685 45.115C42.7935 44.2079 41.8421 43.5447 40.7575 43.2251L29.413 39.8231C29.2851 39.3466 29.004 38.9254 28.6132 38.6243C28.2224 38.3231 27.7434 38.1588 27.25 38.1566H15.25C15.0511 38.1566 14.8603 38.2356 14.7197 38.3763C14.579 38.5169 14.5 38.7077 14.5 38.9066V55.4066C14.5 55.6055 14.579 55.7963 14.7197 55.937C14.8603 56.0776 15.0511 56.1566 15.25 56.1566H27.25C27.6785 56.1553 28.0976 56.0316 28.4582 55.8001C28.8188 55.5687 29.1058 55.2391 29.2855 54.8501L41.26 58.4426C42.8873 58.9335 44.6268 58.9073 46.2385 58.3676L60.85 53.4971C61.4105 53.3117 61.8835 52.9271 62.1792 52.4162C62.475 51.9053 62.573 51.3036 62.4546 50.7252C62.3362 50.1469 62.0097 49.632 61.537 49.2784C61.0643 48.9248 60.4783 48.7569 59.89 48.8066ZM23.5 54.6566H16V39.6566H23.5V54.6566ZM28 53.9066C28 54.1055 27.921 54.2963 27.7803 54.437C27.6397 54.5776 27.4489 54.6566 27.25 54.6566H25V39.6566H27.25C27.4489 39.6566 27.6397 39.7356 27.7803 39.8763C27.921 40.0169 28 40.2077 28 40.4066V53.9066ZM60.3775 52.0721L45.7645 56.9426C44.4458 57.385 43.0223 57.407 41.6905 57.0056L29.5 53.3486V41.4146L40.327 44.6621C41.1013 44.891 41.7805 45.3649 42.2625 46.0127C42.7444 46.6605 43.0033 47.4472 43 48.2546V49.7981L36.529 47.2091C36.4369 47.1686 36.3375 47.147 36.2369 47.1456C36.1362 47.1443 36.0363 47.1632 35.9432 47.2013C35.85 47.2394 35.7654 47.2958 35.6945 47.3673C35.6236 47.4387 35.5678 47.5237 35.5305 47.6172C35.4931 47.7106 35.4749 47.8107 35.477 47.9113C35.4792 48.0119 35.5015 48.1111 35.5427 48.2029C35.584 48.2947 35.6433 48.3773 35.7171 48.4457C35.791 48.5141 35.8778 48.567 35.9725 48.6011L43.4725 51.6011H43.492C43.5284 51.6109 43.5655 51.6179 43.603 51.6221C43.6519 51.6366 43.7022 51.6462 43.753 51.6506C43.762 51.6506 43.7695 51.6506 43.7785 51.6431C43.7875 51.6356 43.8025 51.6431 43.816 51.6431L60.016 50.2931C60.2387 50.2727 60.4612 50.3351 60.6408 50.4684C60.8204 50.6017 60.9445 50.7966 60.9894 51.0157C61.0344 51.2348 60.997 51.4628 60.8843 51.656C60.7717 51.8493 60.5918 51.9942 60.379 52.0631L60.3775 52.0721ZM52 44.1566C54.0767 44.1566 56.1068 43.5408 57.8335 42.3871C59.5602 41.2333 60.906 39.5934 61.7007 37.6748C62.4955 35.7562 62.7034 33.645 62.2982 31.6082C61.8931 29.5714 60.8931 27.7005 59.4246 26.232C57.9562 24.7635 56.0853 23.7635 54.0485 23.3584C52.0117 22.9532 49.9004 23.1612 47.9818 23.9559C46.0632 24.7506 44.4233 26.0964 43.2696 27.8231C42.1158 29.5499 41.5 31.5799 41.5 33.6566C41.5032 36.4404 42.6104 39.1093 44.5789 41.0777C46.5473 43.0462 49.2162 44.1534 52 44.1566ZM52 24.6566C53.78 24.6566 55.5201 25.1845 57.0001 26.1734C58.4802 27.1623 59.6337 28.5679 60.3149 30.2125C60.9961 31.857 61.1743 33.6666 60.8271 35.4124C60.4798 37.1583 59.6226 38.7619 58.364 40.0206C57.1053 41.2793 55.5016 42.1364 53.7558 42.4837C52.01 42.831 50.2004 42.6527 48.5558 41.9715C46.9113 41.2903 45.5057 40.1368 44.5168 38.6568C43.5278 37.1767 43 35.4367 43 33.6566C43.0028 31.2705 43.9519 28.983 45.6391 27.2957C47.3263 25.6085 49.6139 24.6594 52 24.6566Z" fill="black"/>
</g>
<defs>
<linearGradient id="paint0_linear_418_487" x1="70.1429" y1="75.1566" x2="-9.36444" y2="24.7881" gradientUnits="userSpaceOnUse">
<stop stop-color="#0D54BE"/>
<stop offset="1" stop-color="#20ECD3"/>
</linearGradient>
<clipPath id="clip0_418_487">
<rect width="48" height="48" fill="white" transform="translate(14.5 14.1566)"/>
</clipPath>
</defs>
</svg>
