<svg width="55" height="50" viewBox="0 0 55 50" fill="none" xmlns="http://www.w3.org/2000/svg">
<g id="gears-svgrepo-com 1">
<g id="Group">
<g id="bigg">
<g id="Group 15">
<path id="big-gear" d="M32.2346 25.6874L30.0774 23.7264C30.3128 23.2862 30.5189 22.834 30.695 22.3712H33.7456C34.748 22.3712 35.5609 21.6323 35.5609 20.7209V15.883C35.5609 14.9717 34.7481 14.2327 33.7456 14.2327H30.6948C30.5187 13.77 30.3126 13.3178 30.0774 12.8776L32.2346 10.9165C32.9435 10.2721 32.9435 9.2271 32.2346 8.58266L28.4717 5.16178C27.7626 4.51751 26.6135 4.51751 25.9044 5.16178L23.7472 7.1229C23.263 6.90909 22.7657 6.72155 22.2567 6.56162V3.78822C22.2567 2.87694 21.4439 2.13788 20.4413 2.13788H15.1196C14.1172 2.13788 13.3043 2.87677 13.3043 3.78822V6.56162C12.7954 6.72172 12.298 6.90892 11.8137 7.1229L9.65667 5.16178C9.3163 4.85236 8.85444 4.67845 8.37296 4.67845C7.89148 4.67845 7.42982 4.85236 7.08926 5.16178L3.32611 8.58266C2.98574 8.89209 2.79444 9.31195 2.79444 9.74966C2.79444 10.1874 2.98574 10.6071 3.32611 10.9167L5.48333 12.8778C5.24815 13.3178 5.04185 13.77 4.86593 14.2328H1.81537C0.812778 14.2328 0 14.9717 0 15.883V20.721C0 21.6323 0.812778 22.3714 1.81537 22.3714H4.86593C5.04222 22.834 5.24815 23.2862 5.48352 23.7266L3.3263 25.6875C2.61741 26.332 2.61741 27.3769 3.3263 28.0214L7.08926 31.4423C7.79833 32.0864 8.94741 32.0867 9.65648 31.4423L11.8137 29.4811C12.2978 29.6951 12.7954 29.8827 13.3043 30.0426V32.816C13.3043 33.7273 14.117 34.4663 15.1196 34.4663H20.4415C21.4439 34.4663 22.2569 33.7274 22.2569 32.816V30.0426C22.7656 29.8825 23.2631 29.6951 23.7474 29.4811L25.9046 31.4423C26.6137 32.0865 27.7628 32.0865 28.4719 31.4423L32.2348 28.0214C32.9437 27.3768 32.9437 26.3318 32.2346 25.6874ZM27.5607 20.3519C27.3107 21.3416 26.8833 22.2795 26.2904 23.1394C25.8409 23.7911 25.9467 24.6389 26.545 25.1827L28.3839 26.8544L27.1881 27.9416L25.3491 26.2697C24.7506 25.7258 23.8183 25.6301 23.1015 26.0382C22.1552 26.5774 21.1237 26.966 20.0356 27.1929C19.2107 27.365 18.6263 28.0323 18.6263 28.8015V31.1657H16.9352V28.8015C16.9352 28.0323 16.3507 27.3651 15.5259 27.1929C14.4378 26.966 13.4063 26.5774 12.46 26.0382C11.7437 25.6303 10.8109 25.7256 10.2124 26.2697L8.37333 27.9416L7.17759 26.8544L9.01648 25.1827C9.61481 24.6387 9.72037 23.7911 9.27111 23.1394C8.67815 22.2795 8.25074 21.3416 8.00074 20.3519C7.81148 19.6022 7.07759 19.0709 6.23148 19.0709H3.63056V17.5335H6.23093C7.07685 17.5335 7.81074 17.0022 8.00019 16.2527C8.25037 15.2628 8.67759 14.3251 9.27056 13.4653C9.72019 12.8136 9.61444 11.9658 9.01611 11.4219L7.17704 9.75L8.37296 8.66296L10.2119 10.3348C10.8102 10.879 11.743 10.9744 12.4596 10.5662C13.4056 10.0271 14.437 9.63872 15.5254 9.41161C16.3502 9.23956 16.9346 8.57222 16.9346 7.80303V5.43855H18.6257V7.80269C18.6257 8.57188 19.2102 9.23906 20.035 9.41128C21.1235 9.63838 22.1548 10.0268 23.1007 10.5658C23.8176 10.9744 24.7504 10.8788 25.3485 10.3345L27.1876 8.66263L28.3833 9.74966L26.5443 11.4215C25.9459 11.9657 25.8404 12.8133 26.2898 13.465C26.8828 14.3247 27.31 15.2626 27.5602 16.2524C27.7494 17.0019 28.4835 17.5332 29.3294 17.5332H31.9298V19.0705H29.3294C28.4837 19.0707 27.75 19.602 27.5607 20.3519Z" fill="#F10101"/>
</g>
<path id="Vector" d="M17.7804 11.9604C13.9339 11.9604 10.8046 14.8052 10.8046 18.302C10.8046 21.7988 13.9339 24.6436 17.7804 24.6436C21.6268 24.6436 24.7561 21.7988 24.7561 18.302C24.7561 14.8052 21.627 11.9604 17.7804 11.9604ZM17.7804 21.3431C15.9357 21.3431 14.4352 19.979 14.4352 18.302C14.4352 16.6251 15.9359 15.261 17.7804 15.261C19.6248 15.261 21.1256 16.6251 21.1256 18.302C21.1256 19.979 19.625 21.3431 17.7804 21.3431Z" fill="#F10101"/>
</g>
<g id="small">
<g id="Group 14">
<path id="small-gear" d="M53.8109 37.22C54.5996 37.0877 55.1211 36.3993 54.9755 35.6823L54.2905 32.3064C54.2207 31.9619 54.0031 31.6571 53.6861 31.4586C53.3689 31.2601 52.9776 31.1842 52.5991 31.2476L50.5842 31.5853C50.4281 31.3416 50.2591 31.1047 50.0781 30.8754L51.2398 29.3416C51.4581 29.053 51.5417 28.6976 51.4718 28.3534C51.402 28.0089 51.1844 27.704 50.8672 27.5055L47.7568 25.5587C47.0968 25.1454 46.1922 25.2966 45.7374 25.8973L44.5755 27.4313C44.2754 27.3592 43.9718 27.3005 43.6655 27.2549L43.2939 25.4234C43.1483 24.7064 42.3902 24.2318 41.6024 24.3646L37.8889 24.9874C37.51 25.0508 37.1746 25.2486 36.9563 25.5369C36.738 25.8254 36.6544 26.1808 36.7243 26.5251L37.0959 28.3567C36.8276 28.4988 36.567 28.6523 36.3148 28.8168L34.6276 27.7608C34.3102 27.5623 33.9193 27.4867 33.5406 27.5498C33.1617 27.6133 32.8263 27.8111 32.608 28.0995L30.4665 30.9271C30.248 31.2155 30.1646 31.5709 30.2344 31.9151C30.3043 32.2596 30.5219 32.5646 30.8391 32.7631L32.5263 33.819C32.447 34.0921 32.3824 34.3678 32.3322 34.6465L30.3174 34.9843C29.9385 35.0478 29.6031 35.2456 29.3848 35.5338C29.1663 35.8224 29.083 36.1778 29.1528 36.522L29.838 39.898C29.9835 40.615 30.7406 41.0897 31.5294 40.9567L33.5443 40.6188C33.7004 40.8626 33.8694 41.0997 34.0504 41.3289L32.8887 42.8626C32.6704 43.1512 32.5868 43.5064 32.6567 43.8508C32.7265 44.1953 32.9441 44.5002 33.2613 44.6986L36.3717 46.6454C37.0317 47.0587 37.9365 46.9074 38.3911 46.3069L39.5528 44.7731C39.853 44.8449 40.1565 44.9037 40.463 44.9495L40.8346 46.781C40.9637 47.417 41.5743 47.8619 42.2611 47.8619C42.3485 47.8619 42.4372 47.8549 42.5261 47.8399L46.2396 47.2172C46.6185 47.1537 46.9539 46.9559 47.1722 46.6677C47.3905 46.3791 47.4741 46.0237 47.4042 45.6794L47.0326 43.8478C47.3009 43.7057 47.5615 43.5522 47.8137 43.3877L49.5007 44.4438C49.8181 44.6424 50.2087 44.7183 50.5878 44.6547C50.9667 44.5912 51.302 44.3934 51.5204 44.105L53.6618 41.2774C54.1166 40.6769 53.95 39.855 53.2894 39.4416L51.6022 38.3853C51.6815 38.1124 51.7461 37.8365 51.7963 37.5581L53.8109 37.22ZM50.2026 35.1404C49.5367 35.252 49.0441 35.7672 49.0152 36.382C48.9818 37.0848 48.8204 37.7727 48.5352 38.4269C48.2857 38.999 48.5041 39.6518 49.0617 40.0008L50.4463 40.8677L49.9518 41.5205L48.5674 40.6539C48.0094 40.3047 47.2607 40.3523 46.7622 40.7683C46.1917 41.2439 45.5422 41.6266 44.8318 41.9057C44.2104 42.1498 43.8568 42.752 43.9796 43.3571L44.2846 44.8604L43.4274 45.0042L43.1224 43.501C42.9996 42.8958 42.4331 42.448 41.7568 42.4215C40.9831 42.3911 40.2263 42.2443 39.5068 41.9852C39.3324 41.9224 39.1515 41.8922 38.9724 41.8922C38.5056 41.8922 38.0531 42.0976 37.7757 42.4638L36.8224 43.7225L36.1043 43.2731L37.0576 42.0145C37.4415 41.5076 37.3893 40.8269 36.9317 40.3734C36.4085 39.8547 35.9876 39.2643 35.6804 38.6182C35.4117 38.0534 34.7478 37.7318 34.0839 37.8438L32.4304 38.121L32.272 37.3417L33.9257 37.0645C34.5917 36.9528 35.0843 36.4377 35.1131 35.8229C35.1465 35.12 35.308 34.4321 35.5931 33.7776C35.8426 33.2055 35.6241 32.5528 35.0665 32.2037L33.6819 31.3372L34.1763 30.6843L35.5609 31.551C36.1189 31.9003 36.8672 31.8525 37.3661 31.4365C37.9367 30.9609 38.5861 30.5783 39.2968 30.299C39.918 30.0547 40.2715 29.4527 40.1487 28.8476L39.8437 27.3444L40.7009 27.2007L41.0059 28.7039C41.1287 29.3092 41.6954 29.7571 42.3717 29.7833C43.1448 29.8136 43.9015 29.9604 44.6211 30.2197C45.2509 30.4466 45.9687 30.2478 46.3524 29.7411L47.3059 28.4821L48.0241 28.9316L47.0707 30.1904C46.6868 30.6975 46.7391 31.3781 47.1967 31.8316C47.7198 32.3502 48.1407 32.9404 48.4478 33.5864C48.7161 34.1512 49.3792 34.4729 50.0443 34.3611L51.698 34.0838L51.8561 34.8631L50.2026 35.1404Z" fill="#F10101"/>
</g>
<path id="Vector_2" d="M44.9642 32.2729C43.8392 31.5689 42.4794 31.3052 41.1363 31.5303C39.7929 31.7556 38.6264 32.4431 37.8518 33.4658C36.2526 35.5773 36.8413 38.478 39.1639 39.9317C40.0476 40.4849 41.057 40.75 42.0565 40.75C43.684 40.75 45.2857 40.0468 46.2765 38.7387C47.8755 36.6273 47.2868 33.7266 44.9642 32.2729ZM43.8842 37.2414C43.1933 38.1536 41.8146 38.3849 40.8113 37.7569C39.8077 37.1288 39.5533 35.8754 40.2442 34.9633C40.2444 34.9631 40.2444 34.9631 40.2444 34.9631C40.5789 34.5212 41.0829 34.2243 41.6633 34.127C41.7985 34.1044 41.9342 34.0931 42.0689 34.0931C42.512 34.0931 42.9444 34.2145 43.3172 34.4478C44.3207 35.0759 44.5752 36.3291 43.8842 37.2414Z" fill="#F10101"/>
</g>
</g>
</g>
</svg>
