<svg width="30" height="31" viewBox="0 0 30 31" fill="none" xmlns="http://www.w3.org/2000/svg">
<g clip-path="url(#clip0_430_244)">
<path d="M30 6.43888V24.0476C30 25.6715 28.6891 26.9824 27.0652 26.9824H2.93479C1.31086 26.9824 0 25.6715 0 24.0476V6.43888C0 6.38673 0 6.33452 0.00650391 6.28237C0.0847852 4.78237 1.27822 3.58888 2.77822 3.51065C2.83037 3.50415 2.88258 3.50415 2.93473 3.50415H27.0652C27.1173 3.50415 27.176 3.50415 27.2282 3.51065C28.7217 3.58894 29.9152 4.78237 29.9934 6.27587C30 6.32802 30 6.38673 30 6.43888Z" fill="white"/>
<path d="M27.2283 3.51041C27.176 3.50391 27.1175 3.50391 27.0652 3.50391H15V26.9822H27.0652C28.6891 26.9822 30 25.6713 30 24.0474V6.43869C30 6.38654 30 6.32783 29.9935 6.27562C29.9152 4.78219 28.7217 3.58869 27.2283 3.51041Z" fill="white"/>
<path d="M29.9935 6.27577C29.9152 4.78228 28.7218 3.58884 27.2283 3.51056C22.435 8.30382 19.7432 10.9956 15 15.7388C13.2006 13.9384 4.54746 5.27974 2.77828 3.5105C1.27828 3.58878 0.0847852 4.78222 0.0065625 6.28222C0 6.33442 0 6.38663 0 6.43878V24.0475C0 25.6714 1.31086 26.9823 2.93479 26.9823H3.91307V10.1888L13.6174 19.8866C13.9957 20.2714 14.4979 20.4606 15.0001 20.4606C15.5022 20.4606 16.0044 20.2714 16.3827 19.8866L26.0871 10.1823V26.9823H27.0653C28.6893 26.9823 30.0001 25.6714 30.0001 24.0475V6.43878C30 6.38663 30 6.32792 29.9935 6.27577Z" fill="#303030" fill-opacity="0.57"/>
<path d="M16.3826 19.8866L26.0869 10.1823V26.9823H27.0652C28.6891 26.9823 30 25.6714 30 24.0475V6.43878C30 6.38663 30 6.32792 29.9935 6.27571C29.9152 4.78222 28.7218 3.58878 27.2283 3.5105C22.435 8.30382 19.7432 10.9956 15 15.7388V20.4605C15.5021 20.4605 16.0044 20.2714 16.3826 19.8866Z" fill="#303030" fill-opacity="0.57"/>
</g>
<defs>
<clipPath id="clip0_430_244">
<rect width="30" height="30" fill="white" transform="translate(0 0.243164)"/>
</clipPath>
</defs>
</svg>
