<svg width="76" height="76" viewBox="0 0 76 76" fill="none" xmlns="http://www.w3.org/2000/svg">
<path d="M34.1848 1.35793L38 1.15799L41.8152 1.35793L45.5885 1.95557L49.2787 2.94436L52.8453 4.31346L56.2493 6.04788L59.4534 8.12861L62.4223 10.5328L65.1238 13.2343L67.528 16.2033L69.6087 19.4073L71.3432 22.8113L72.7122 26.3779L73.701 30.0682L74.2987 33.8415L74.4986 37.6566L74.2987 41.4718L73.701 45.2451L72.7122 48.9353L71.3432 52.5019L69.6087 55.9059L67.528 59.11L65.1238 62.0789L62.4223 64.7804L59.4534 67.1846L56.2493 69.2654L52.8453 70.9998L49.2787 72.3689L45.5885 73.3577L41.8151 73.9553L38 74.1552L34.1849 73.9553L30.4115 73.3577L26.7213 72.3689L23.1547 70.9998L19.7507 69.2654L16.5466 67.1846L13.5777 64.7804L10.8762 62.079L8.472 59.11L6.39126 55.9059L4.65684 52.5019L3.28774 48.9353L2.29895 45.2451L1.70132 41.4718L1.50137 37.6566L1.70132 33.8415L2.29896 30.0681L3.28774 26.3779L4.65684 22.8113L6.39126 19.4073L8.47199 16.2033L10.8762 13.2343L13.5776 10.5329L16.5466 8.12861L19.7507 6.04788L23.1547 4.31346L26.7213 2.94436L30.4115 1.95557L34.1848 1.35793Z" stroke="url(#paint0_linear_416_228)" stroke-width="2"/>
<path d="M17.5625 60.2816H22.6199C22.7171 60.2851 22.8139 60.2691 22.9048 60.2346C22.9956 60.2001 23.0787 60.1478 23.149 60.0808C23.2194 60.0137 23.2756 59.9333 23.3144 59.8442C23.3532 59.7551 23.3738 59.6591 23.375 59.562V57.6566H52.625V59.562C52.6262 59.6591 52.6468 59.7551 52.6856 59.8442C52.7244 59.9333 52.7806 60.0137 52.851 60.0808C52.9213 60.1478 53.0044 60.2001 53.0952 60.2346C53.1861 60.2691 53.2829 60.2851 53.3801 60.2816H58.4375C58.5344 60.285 58.6309 60.2689 58.7214 60.2343C58.812 60.1997 58.8946 60.1474 58.9646 60.0803C59.0345 60.0132 59.0902 59.9327 59.1285 59.8437C59.1668 59.7547 59.1869 59.6589 59.1875 59.562V54.1907C59.1876 53.9915 59.1087 53.8003 58.9681 53.6592C58.8275 53.5181 58.6367 53.4385 58.4375 53.4378H56.6562V22.8753H58.4375C58.6367 22.8747 58.8275 22.7951 58.9681 22.654C59.1087 22.5129 59.1876 22.3217 59.1875 22.1225V16.7512C59.1869 16.6543 59.1668 16.5585 59.1285 16.4695C59.0902 16.3805 59.0345 16.3 58.9646 16.2329C58.8946 16.1658 58.812 16.1134 58.7214 16.0789C58.6309 16.0443 58.5344 16.0282 58.4375 16.0316H53.3801C53.2829 16.0281 53.1861 16.0441 53.0952 16.0786C53.0044 16.1131 52.9213 16.1654 52.851 16.2324C52.7806 16.2995 52.7244 16.3799 52.6856 16.469C52.6468 16.5581 52.6262 16.654 52.625 16.7512V18.6566H23.375V16.7512C23.3738 16.654 23.3532 16.5581 23.3144 16.469C23.2756 16.3799 23.2194 16.2995 23.149 16.2324C23.0787 16.1654 22.9956 16.1131 22.9048 16.0786C22.8139 16.0441 22.7171 16.0281 22.6199 16.0316H17.5625C17.4656 16.0282 17.3691 16.0443 17.2786 16.0789C17.188 16.1134 17.1054 16.1658 17.0354 16.2329C16.9655 16.3 16.9098 16.3805 16.8715 16.4695C16.8332 16.5585 16.8131 16.6543 16.8125 16.7512V22.1225C16.8124 22.3217 16.8913 22.5129 17.0319 22.654C17.1725 22.7951 17.3633 22.8747 17.5625 22.8753H19.3438V53.4378H17.5625C17.3633 53.4385 17.1725 53.5181 17.0319 53.6592C16.8913 53.8003 16.8124 53.9915 16.8125 54.1907V59.562C16.8131 59.6589 16.8332 59.7547 16.8715 59.8437C16.9098 59.9327 16.9655 60.0132 17.0354 60.0803C17.1054 60.1474 17.188 60.1997 17.2786 60.2343C17.3691 60.2689 17.4656 60.285 17.5625 60.2816ZM57.6875 58.7816H54.125V54.9378H57.6875V58.7816ZM54.125 17.5316H57.6875V21.3753H54.125V17.5316ZM18.3125 17.5316H21.875V21.3753H18.3125V17.5316ZM20.8438 22.8753H22.6199C22.8197 22.8749 23.0111 22.7955 23.1526 22.6545C23.294 22.5135 23.374 22.3223 23.375 22.1225V20.1566H52.625V22.1225C52.626 22.3223 52.706 22.5135 52.8474 22.6545C52.9889 22.7955 53.1803 22.8749 53.3801 22.8753H55.1562V53.4378H53.3801C53.1803 53.4383 52.9889 53.5177 52.8474 53.6587C52.706 53.7997 52.626 53.9909 52.625 54.1907V56.1566H23.375V54.1907C23.374 53.9909 23.294 53.7997 23.1526 53.6587C23.0111 53.5177 22.8197 53.4383 22.6199 53.4378H20.8438V22.8753ZM18.3125 54.9378H21.875V58.7816H18.3125V54.9378Z" fill="black"/>
<path d="M30.9736 47.9066H30.1381C29.9392 47.9066 29.7484 47.9856 29.6078 48.1262C29.4671 48.2669 29.3881 48.4576 29.3881 48.6566C29.3881 48.8555 29.4671 49.0462 29.6078 49.1869C29.7484 49.3275 29.9392 49.4066 30.1381 49.4066H31.3887L32.6844 54.0982C32.7277 54.2572 32.8217 54.3978 32.9522 54.4986C33.0826 54.5993 33.2424 54.6548 33.4072 54.6566H42.8889C43.0561 54.6548 43.218 54.5977 43.3494 54.4943C43.4808 54.3908 43.5743 54.2468 43.6152 54.0847L44.8156 49.4066H45.8619C46.0608 49.4066 46.2515 49.3275 46.3922 49.1869C46.5329 49.0462 46.6119 48.8555 46.6119 48.6566C46.6119 48.4576 46.5329 48.2669 46.3922 48.1262C46.2515 47.9856 46.0608 47.9066 45.8619 47.9066H45.2007L47.4671 39.0952C47.5135 38.9159 47.4908 38.7257 47.4035 38.5624L38.6629 22.0512C38.599 21.9307 38.5034 21.83 38.3865 21.7598C38.2696 21.6896 38.1358 21.6526 37.9995 21.6528C37.8631 21.653 37.7294 21.6904 37.6127 21.7609C37.496 21.8314 37.4007 21.9323 37.3371 22.0529L28.5969 38.5669C28.5074 38.7328 28.4859 38.927 28.5369 39.1084L30.9736 47.9066ZM42.3072 53.1566H33.9781L32.9451 49.4066H43.267L42.3072 53.1566ZM38 35.5393C38.2619 35.5393 38.5179 35.617 38.7356 35.7625C38.9534 35.908 39.1231 36.1148 39.2233 36.3567C39.3235 36.5987 39.3498 36.8649 39.2987 37.1218C39.2476 37.3786 39.1215 37.6146 38.9363 37.7998C38.7511 37.9849 38.5152 38.1111 38.2583 38.1621C38.0015 38.2132 37.7352 38.187 37.4933 38.0868C37.2513 37.9866 37.0445 37.8169 36.899 37.5991C36.7535 37.3814 36.6759 37.1254 36.6759 36.8635C36.6763 36.5124 36.8159 36.1758 37.0641 35.9276C37.3124 35.6794 37.6489 35.5397 38 35.5393ZM37.25 25.4246V34.1412C36.5911 34.3228 36.0203 34.737 35.6436 35.3073C35.2669 35.8776 35.1098 36.5651 35.2013 37.2424C35.2929 37.9197 35.627 38.5408 36.1416 38.9905C36.6563 39.4402 37.3165 39.6881 38 39.6881C38.6835 39.6881 39.3437 39.4402 39.8584 38.9905C40.373 38.5408 40.7071 37.9197 40.7987 37.2424C40.8902 36.5651 40.7331 35.8776 40.3564 35.3073C39.9796 34.737 39.4089 34.3228 38.75 34.1412V25.4246L45.942 39.003L43.6519 47.9066H32.53L30.0617 38.9959L37.25 25.4246Z" fill="black"/>
<defs>
<linearGradient id="paint0_linear_416_228" x1="70.1429" y1="75.1566" x2="-9.36444" y2="24.7881" gradientUnits="userSpaceOnUse">
<stop stop-color="#0D54BE"/>
<stop offset="1" stop-color="#20ECD3"/>
</linearGradient>
</defs>
</svg>
