<svg width="76" height="76" viewBox="0 0 76 76" fill="none" xmlns="http://www.w3.org/2000/svg">
<path d="M34.1848 1.35793L38 1.15799L41.8152 1.35793L45.5885 1.95557L49.2787 2.94436L52.8453 4.31346L56.2493 6.04788L59.4534 8.12861L62.4223 10.5328L65.1238 13.2343L67.528 16.2033L69.6087 19.4073L71.3432 22.8113L72.7122 26.3779L73.701 30.0682L74.2987 33.8415L74.4986 37.6566L74.2987 41.4718L73.701 45.2451L72.7122 48.9353L71.3432 52.5019L69.6087 55.9059L67.528 59.11L65.1238 62.0789L62.4223 64.7804L59.4534 67.1846L56.2493 69.2654L52.8453 70.9998L49.2787 72.3689L45.5885 73.3577L41.8151 73.9553L38 74.1552L34.1849 73.9553L30.4115 73.3577L26.7213 72.3689L23.1547 70.9998L19.7507 69.2654L16.5466 67.1846L13.5777 64.7804L10.8762 62.079L8.472 59.11L6.39126 55.9059L4.65684 52.5019L3.28774 48.9353L2.29895 45.2451L1.70132 41.4718L1.50137 37.6566L1.70132 33.8415L2.29896 30.0681L3.28774 26.3779L4.65684 22.8113L6.39126 19.4073L8.47199 16.2033L10.8762 13.2343L13.5776 10.5329L16.5466 8.12861L19.7507 6.04788L23.1547 4.31346L26.7213 2.94436L30.4115 1.95557L34.1848 1.35793Z" stroke="url(#paint0_linear_418_482)" stroke-width="2"/>
<g clip-path="url(#clip0_418_482)">
<path d="M47.1243 30.4567L56.6361 19.0526C57.6437 17.8136 57.502 16.0518 56.3556 14.9625C55.0694 13.7722 53.0732 13.9353 51.9801 15.2677L43.8302 25.3053C43.495 25.716 42.9992 25.9511 42.4735 25.9511H40.7924C42.223 24.6532 43.1526 22.3567 43.1526 20.6737C43.1526 18.1057 41.0635 16.017 38.4959 16.017C35.9282 16.017 33.8391 18.1061 33.8391 20.6737C33.8391 22.3567 34.7687 24.6532 36.1994 25.9511H34.5235C33.9929 25.9511 33.4971 25.716 33.1619 25.3053L25.0067 15.2681C23.9196 13.9233 21.9096 13.7696 20.6312 14.9677C19.4897 16.0391 19.3697 17.8361 20.356 19.053L29.863 30.4623C30.1232 30.7777 30.2635 31.1632 30.2635 31.5686V37.629H25.4924C24.7127 37.629 24.0779 38.2635 24.0779 39.0435V41.7296C24.0779 42.5096 24.7124 43.1441 25.4924 43.1441H26.5454L28.9795 61.1553H27.6212C27.3445 61.1553 27.1206 61.3796 27.1206 61.656C27.1206 61.9323 27.3445 62.1566 27.6212 62.1566C33.0209 62.1566 44.0031 62.1566 49.3743 62.1566C49.651 62.1566 49.8749 61.9323 49.8749 61.656C49.8749 61.3796 49.651 61.1553 49.3743 61.1553H48.016L50.4513 43.1441H51.4979C52.2775 43.1441 52.9124 42.5096 52.9124 41.7296V39.0435C52.9124 38.2635 52.2779 37.629 51.4979 37.629H46.7339V31.5581C46.7339 31.1576 46.8738 30.7623 47.1243 30.4567ZM34.8404 20.6737C34.8404 18.6581 36.4802 17.0182 38.4959 17.0182C40.5115 17.0182 42.1514 18.6581 42.1514 20.6737C42.1514 22.7115 40.4785 25.9567 38.4959 25.9567C36.5132 25.9567 34.8404 22.7118 34.8404 20.6737ZM47.0057 61.1553H29.9901L27.556 43.1441H49.4406L47.0057 61.1553ZM51.9111 39.0431V41.7292C51.9111 41.9572 51.7259 42.1425 51.4979 42.1425C48.8118 42.1425 28.8685 42.1425 25.4924 42.1425C25.2644 42.1425 25.0791 41.9568 25.0791 41.7292V39.0431C25.0791 38.8151 25.2644 38.6298 25.4924 38.6298H51.4979C51.7255 38.6298 51.9111 38.8155 51.9111 39.0431ZM34.1357 37.6286V32.2383C34.1357 32.007 34.2479 31.788 34.435 31.6522L35.407 30.9491C35.623 31.08 35.881 31.1617 36.1716 31.1617C36.6655 31.1617 37.2422 30.939 37.8216 30.3795C38.3894 29.8335 38.6946 29.2605 38.7051 28.722C38.7119 28.3533 38.5814 28.0203 38.3316 27.762C38.0751 27.4905 37.7196 27.336 37.3315 27.3266C36.9261 27.3168 36.3302 27.4462 35.6346 28.1148C35.0669 28.6635 34.7627 29.2387 34.7552 29.7787C34.7534 29.9081 34.7744 30.0303 34.8055 30.1492L33.8489 30.8415C33.4019 31.1647 33.1352 31.6871 33.1352 32.2387V37.6286H31.2651V31.5682C31.2651 30.9375 31.0397 30.3217 30.6392 29.8211L21.127 18.4218C20.4711 17.6107 20.5562 16.4145 21.3171 15.6986C22.1676 14.9058 23.5034 14.9943 24.2309 15.9037L32.386 25.9413C32.9166 26.5871 33.6925 26.9527 34.5235 26.9527H42.4735C43.2996 26.9527 44.0804 26.5871 44.6061 25.9365L52.7564 15.9041C53.4921 15.0026 54.8215 14.9081 55.6701 15.6937C56.4816 16.4658 56.4955 17.646 55.8655 18.417L46.3581 29.8158C45.9528 30.3015 45.7323 30.9221 45.7323 31.5581V37.6282L34.1357 37.6286ZM35.7557 29.7933C35.7576 29.67 35.8172 29.3306 36.3291 28.836C36.6666 28.512 37.0169 28.3275 37.2929 28.3275C37.2977 28.3275 37.3026 28.3275 37.3075 28.3278C37.4309 28.3308 37.5302 28.3721 37.6086 28.4546C37.6757 28.5236 37.7057 28.6031 37.7039 28.7036C37.699 28.9631 37.4886 29.3107 37.1271 29.6583C37.1267 29.6587 37.126 29.6591 37.1256 29.6595C36.6254 30.1432 36.1019 30.2996 35.8521 30.0412C35.785 29.9722 35.7542 29.8935 35.7557 29.7933Z" fill="black"/>
</g>
<defs>
<linearGradient id="paint0_linear_418_482" x1="70.1429" y1="75.1566" x2="-9.36444" y2="24.7881" gradientUnits="userSpaceOnUse">
<stop stop-color="#0D54BE"/>
<stop offset="1" stop-color="#20ECD3"/>
</linearGradient>
<clipPath id="clip0_418_482">
<rect width="48" height="48" fill="white" transform="translate(14.5 14.1566)"/>
</clipPath>
</defs>
</svg>
