<svg width="73" height="74" viewBox="0 0 73 74" fill="none" xmlns="http://www.w3.org/2000/svg">
<g clip-path="url(#clip0)" filter="url(#filter0_d)">
<path d="M63.1202 0.101074H9.87978C6.6325 0.101074 4 2.73357 4 5.98085V59.2211C4 62.4686 6.6325 65.1011 9.87978 65.1011H63.1201C66.3675 65.1011 69 62.4686 69 59.2211V5.98085C69 2.73357 66.3675 0.101074 63.1202 0.101074ZM24.1138 56.2264C24.1138 57.1714 23.3477 57.9375 22.4027 57.9375H15.1189C14.1739 57.9375 13.4078 57.1714 13.4078 56.2264V25.6932C13.4078 24.7482 14.1739 23.9821 15.1189 23.9821H22.4027C23.3477 23.9821 24.1138 24.7482 24.1138 25.6932V56.2264ZM18.7608 21.1039C14.9392 21.1039 11.8412 18.0059 11.8412 14.1843C11.8412 10.3627 14.9392 7.26469 18.7608 7.26469C22.5823 7.26469 25.6804 10.3627 25.6804 14.1843C25.6804 18.0059 22.5825 21.1039 18.7608 21.1039ZM62.1784 56.3642C62.1784 57.233 61.474 57.9375 60.6051 57.9375H52.7891C51.9203 57.9375 51.2159 57.233 51.2159 56.3642V42.0424C51.2159 39.9059 51.8426 32.6802 45.6325 32.6802C40.8155 32.6802 39.8385 37.626 39.6423 39.8455V56.3642C39.6423 57.233 38.938 57.9375 38.069 57.9375H30.5096C29.6408 57.9375 28.9363 57.233 28.9363 56.3642V25.5554C28.9363 24.6866 29.6408 23.9821 30.5096 23.9821H38.069C38.9378 23.9821 39.6423 24.6866 39.6423 25.5554V28.2192C41.4284 25.5387 44.0829 23.4698 49.7346 23.4698C62.25 23.4698 62.1784 35.1623 62.1784 41.5867V56.3642Z" fill="#0DA4F5"/>
</g>
<defs>
<filter id="filter0_d" x="0" y="0.101074" width="73" height="73" filterUnits="userSpaceOnUse" color-interpolation-filters="sRGB">
<feFlood flood-opacity="0" result="BackgroundImageFix"/>
<feColorMatrix in="SourceAlpha" type="matrix" values="0 0 0 0 0 0 0 0 0 0 0 0 0 0 0 0 0 0 127 0"/>
<feOffset dy="4"/>
<feGaussianBlur stdDeviation="2"/>
<feColorMatrix type="matrix" values="0 0 0 0 0 0 0 0 0 0 0 0 0 0 0 0 0 0 0.25 0"/>
<feBlend mode="normal" in2="BackgroundImageFix" result="effect1_dropShadow"/>
<feBlend mode="normal" in="SourceGraphic" in2="effect1_dropShadow" result="shape"/>
</filter>
<clipPath id="clip0">
<rect width="65" height="65" fill="white" transform="translate(4 0.101074)"/>
</clipPath>
</defs>
</svg>
