<svg width="29" height="28" viewBox="0 0 29 28" fill="none" xmlns="http://www.w3.org/2000/svg">
<path d="M7.69238 17.0505C7.77526 17.194 7.91177 17.2988 8.07189 17.3417C8.232 17.3846 8.40259 17.3621 8.54615 17.2792L19.1474 11.1586L18.1655 14.823C18.1259 14.982 18.1502 15.1502 18.2334 15.2914C18.3166 15.4326 18.4519 15.5355 18.6102 15.5779C18.7685 15.6203 18.9371 15.5989 19.0797 15.5182C19.2224 15.4375 19.3276 15.304 19.3727 15.1464L20.7453 10.0239C20.7667 9.94514 20.7722 9.86299 20.7617 9.78212C20.7512 9.70125 20.7248 9.62326 20.684 9.55263L20.6828 9.55047C20.6421 9.4801 20.5874 9.41786 20.5212 9.36808C20.4563 9.31803 20.3821 9.28137 20.303 9.26021L15.1804 7.88761C15.0214 7.84796 14.8532 7.87234 14.712 7.95551C14.5708 8.03868 14.4679 8.17398 14.4255 8.33227C14.383 8.49057 14.4045 8.65919 14.4852 8.80182C14.5659 8.94445 14.6994 9.04968 14.8569 9.09484L18.5224 10.0761L7.92115 16.1967C7.77759 16.2796 7.67285 16.4161 7.62994 16.5762C7.58704 16.7363 7.6095 16.9069 7.69238 17.0505V17.0505Z" fill="#4f47c8" fill-opacity="1"/>
</svg>
