<svg width="30" height="31" viewBox="0 0 30 31" fill="none" xmlns="http://www.w3.org/2000/svg">
<g clip-path="url(#clip0_430_233)">
<path d="M27.2863 0.243164H2.71374C1.215 0.243164 0 1.45816 0 2.95691V27.5293C0 29.0282 1.215 30.2432 2.71374 30.2432H27.2862C28.785 30.2432 30 29.0282 30 27.5293V2.95691C30 1.45816 28.785 0.243164 27.2863 0.243164ZM9.28327 26.1471C9.28327 26.5833 8.92971 26.9369 8.49353 26.9369H5.13181C4.69563 26.9369 4.34207 26.5833 4.34207 26.1471V12.0549C4.34207 11.6187 4.69563 11.2652 5.13181 11.2652H8.49353C8.92971 11.2652 9.28327 11.6187 9.28327 12.0549V26.1471ZM6.81267 9.93678C5.04887 9.93678 3.61901 8.50691 3.61901 6.74311C3.61901 4.97932 5.04887 3.54945 6.81267 3.54945C8.57647 3.54945 10.0063 4.97932 10.0063 6.74311C10.0063 8.50691 8.57654 9.93678 6.81267 9.93678ZM26.8516 26.2108C26.8516 26.6117 26.5264 26.9369 26.1254 26.9369H22.5181C22.1171 26.9369 21.7919 26.6117 21.7919 26.2108V19.6007C21.7919 18.6146 22.0812 15.2797 19.215 15.2797C16.9918 15.2797 16.5408 17.5624 16.4503 18.5867V26.2108C16.4503 26.6117 16.1252 26.9369 15.7242 26.9369H12.2352C11.8342 26.9369 11.5091 26.6117 11.5091 26.2108V11.9913C11.5091 11.5903 11.8342 11.2652 12.2352 11.2652H15.7242C16.1252 11.2652 16.4503 11.5903 16.4503 11.9913V13.2208C17.2747 11.9836 18.4998 11.0287 21.1083 11.0287C26.8846 11.0287 26.8516 16.4253 26.8516 19.3904V26.2108Z" fill="white"/>
</g>
<defs>
<clipPath id="clip0_430_233">
<rect width="30" height="30" fill="white" transform="translate(0 0.243164)"/>
</clipPath>
</defs>
</svg>
