<svg width="76" height="75" viewBox="0 0 76 75" fill="none" xmlns="http://www.w3.org/2000/svg">
<path d="M34.1848 1.20132L38 1.00137L41.8152 1.20132L45.5885 1.79895L49.2787 2.78774L52.8453 4.15684L56.2493 5.89126L59.4534 7.972L62.4223 10.3762L65.1238 13.0777L67.528 16.0466L69.6087 19.2507L71.3432 22.6547L72.7122 26.2213L73.701 29.9115L74.2987 33.6849L74.4986 37.5L74.2987 41.3151L73.701 45.0885L72.7122 48.7787L71.3432 52.3453L69.6087 55.7493L67.528 58.9534L65.1238 61.9223L62.4223 64.6238L59.4534 67.028L56.2493 69.1087L52.8453 70.8432L49.2787 72.2122L45.5885 73.201L41.8151 73.7987L38 73.9986L34.1849 73.7987L30.4115 73.201L26.7213 72.2122L23.1547 70.8432L19.7507 69.1087L16.5466 67.028L13.5777 64.6238L10.8762 61.9223L8.472 58.9534L6.39126 55.7493L4.65684 52.3453L3.28774 48.7787L2.29895 45.0885L1.70132 41.3152L1.50137 37.5L1.70132 33.6848L2.29896 29.9115L3.28774 26.2213L4.65684 22.6547L6.39126 19.2507L8.47199 16.0466L10.8762 13.0776L13.5776 10.3762L16.5466 7.97199L19.7507 5.89126L23.1547 4.15684L26.7213 2.78774L30.4115 1.79896L34.1848 1.20132Z" stroke="url(#paint0_linear_416_223)" stroke-width="2"/>
<path d="M50.5 24.875H47.5C47.05 24.875 46.75 25.175 46.75 25.625C46.75 26.075 47.05 26.375 47.5 26.375H50.5C50.95 26.375 51.25 26.075 51.25 25.625C51.25 25.175 50.95 24.875 50.5 24.875ZM52.75 21.875H47.5C47.05 21.875 46.75 22.175 46.75 22.625C46.75 23.075 47.05 23.375 47.5 23.375H52.75C53.2 23.375 53.5 23.075 53.5 22.625C53.5 22.175 53.2 21.875 52.75 21.875ZM39.25 18.125H37C36.55 18.125 36.25 18.425 36.25 18.875C36.25 19.325 36.55 19.625 37 19.625H39.25C39.7 19.625 40 19.325 40 18.875C40 18.425 39.7 18.125 39.25 18.125Z" fill="black"/>
<path d="M58.75 18.125H45.25V17.375C45.25 16.1 44.275 15.125 43 15.125H35.5C33.85 15.125 33.25 16.475 33.25 17.375V21.125C33.25 22.325 34.225 23.375 35.5 23.375H36.7L38.425 25.1L23.425 27.95C23.425 27.95 21.475 28.325 19.975 30.275C19.9 30.275 19.825 30.275 19.75 30.275C18.475 30.5 16 32 16 36.2C16 40.4 18.4 41.9 19.75 42.125C19.825 42.125 19.825 42.125 19.9 42.125H19.975C20.65 43.025 21.475 43.625 22.075 43.925C22.075 44 22.15 44.075 22.225 44.15L32.725 57.65C32.8 57.725 32.875 57.8 32.95 57.8C33.55 58.325 34.375 58.625 35.2 58.625C37.075 58.625 38.575 57.125 38.575 55.25C38.575 54.425 38.275 53.675 37.75 53C37.75 52.925 37.675 52.925 37.675 52.85L31.975 45.95L47.425 48.875C47.5 48.875 47.5 48.875 47.575 48.875C47.65 48.875 47.65 48.875 47.725 48.875C47.8 48.875 47.875 48.875 47.95 48.875C51.55 48.875 54.325 43.25 54.325 36.125C54.325 34.55 54.175 32.975 53.95 31.625L55.45 30.125H58.75C59.95 30.125 61 29.15 61 27.875V20.375C61 19.475 60.4 18.125 58.75 18.125ZM43.6 41.375C43.225 39.875 43 38.075 43 36.125C43 34.175 43.225 32.375 43.6 30.875C43.675 30.875 43.675 30.875 43.75 30.875C45.4 30.875 46.75 33.275 46.75 36.125C46.75 38.975 45.4 41.375 43.75 41.375C43.675 41.375 43.675 41.375 43.6 41.375ZM37 21.875H35.5C35.125 21.875 34.75 21.575 34.75 21.125V17.375C34.75 17 34.9 16.625 35.5 16.625H43C43.45 16.625 43.75 16.925 43.75 17.375V21.125C43.75 21.575 43.45 21.875 43 21.875H40.75C40.3 21.875 40 22.175 40 22.625V24.575L37.525 22.1C37.375 21.95 37.225 21.875 37 21.875ZM41.5 23.375H43V24.2L41.5 24.5V23.375ZM40.225 26.9C40.375 27.05 40.525 27.125 40.75 27.125C40.825 27.125 40.975 27.125 41.05 27.05C41.35 26.9 41.5 26.675 41.5 26.375V26L43 25.7V27.8C42.1 29.975 41.5 32.9 41.5 36.05C41.5 40.55 42.625 44.45 44.35 46.7L29.8 44C28.675 41.9 28.075 39.05 28.075 36.125C28.075 33.2 28.675 30.35 29.8 28.25L39.7 26.375L40.225 26.9ZM17.5 36.125C17.5 34.025 18.175 32.9 18.85 32.3C18.475 33.35 18.25 34.55 18.25 36.125C18.25 37.625 18.475 38.9 18.85 39.875C18.175 39.35 17.5 38.225 17.5 36.125ZM19.75 36.125C19.75 30.125 23.5 29.375 23.65 29.375L27.925 28.55C27.025 30.725 26.5 33.35 26.5 36.125C26.5 38.9 27.025 41.525 27.925 43.7L23.575 42.875C23.575 42.875 19.75 42.2 19.75 36.125ZM29.65 45.575L36.25 53.675C36.25 53.75 36.325 53.825 36.4 53.9C36.775 54.275 36.925 54.725 36.925 55.25C36.925 56.3 36.1 57.125 35.05 57.125C34.525 57.125 34.075 56.9 33.7 56.6L33.625 56.525L24.4 44.525L29.65 45.575ZM52.75 36.125C52.75 42.875 50.2 47.375 47.875 47.375C46.45 47.375 44.95 45.725 43.975 42.875C46.375 42.65 48.25 39.8 48.25 36.125C48.25 33.5 47.275 31.25 45.85 30.125H50.5V33.125C50.5 33.425 50.65 33.725 50.95 33.8C51.025 33.875 51.175 33.875 51.25 33.875C51.475 33.875 51.625 33.8 51.775 33.65L52.525 32.9C52.675 33.875 52.75 35 52.75 36.125ZM59.5 27.875C59.5 28.25 59.2 28.625 58.75 28.625H55C54.775 28.625 54.625 28.7 54.475 28.85L52 31.325V29.375C52 28.925 51.7 28.625 51.25 28.625H45.25C44.8 28.625 44.5 28.325 44.5 27.875V22.775C44.95 22.4 45.25 21.8 45.25 21.125V19.625H58.75C59.35 19.625 59.5 20 59.5 20.375V27.875Z" fill="black"/>
<defs>
<linearGradient id="paint0_linear_416_223" x1="70.1429" y1="75" x2="-9.36444" y2="24.6315" gradientUnits="userSpaceOnUse">
<stop stop-color="#0D54BE"/>
<stop offset="1" stop-color="#20ECD3"/>
</linearGradient>
</defs>
</svg>
