<svg width="832" height="968" viewBox="0 0 832 968" fill="none" xmlns="http://www.w3.org/2000/svg">
<ellipse cx="508.558" cy="870.75" rx="15.1562" ry="15.3208" fill="#F37A7A"/>
<ellipse cx="578.883" cy="870.75" rx="15.1562" ry="15.3208" fill="#F37A7A"/>
<ellipse cx="649.208" cy="870.75" rx="15.1562" ry="15.3208" fill="#F37A7A"/>
<ellipse cx="719.533" cy="870.75" rx="15.1562" ry="15.3208" fill="#F37A7A"/>
<ellipse cx="789.858" cy="870.75" rx="15.1562" ry="15.3208" fill="#F37A7A"/>
<ellipse cx="508.558" cy="924.679" rx="15.1562" ry="15.3208" fill="#F37A7A"/>
<ellipse cx="578.883" cy="924.679" rx="15.1562" ry="15.3208" fill="#F37A7A"/>
<ellipse cx="649.208" cy="924.679" rx="15.1562" ry="15.3208" fill="#F37A7A"/>
<ellipse cx="719.533" cy="924.679" rx="15.1562" ry="15.3208" fill="#F37A7A"/>
<ellipse cx="789.858" cy="924.679" rx="15.1562" ry="15.3208" fill="#F37A7A"/>
<path d="M99.9 89.2831L77.8325 117.746L99.9 149.642" stroke="#08B7AC" stroke-width="3"/>
<path d="M99.9 146.802L77.8325 175.265L99.9 207.161" stroke="#08B7AC" stroke-width="3"/>
<path d="M99.9 207.871L77.8325 236.334L99.9 268.23" stroke="#08B7AC" stroke-width="3"/>
<path d="M77.8326 89.2831L55.7651 117.746L77.8326 149.642" stroke="#08B7AC" stroke-width="3"/>
<path d="M77.8326 146.802L55.7651 175.265L77.8326 207.161" stroke="#08B7AC" stroke-width="3"/>
<path d="M77.8326 207.871L55.7651 236.334L77.8326 268.23" stroke="#08B7AC" stroke-width="3"/>
<path d="M54.0675 89.2831L32 117.746L54.0675 149.642" stroke="#08B7AC" stroke-width="3"/>
<path d="M54.0675 146.802L32 175.265L54.0675 207.161" stroke="#08B7AC" stroke-width="3"/>
<path d="M54.0675 207.871L32 236.334L54.0675 268.23" stroke="#08B7AC" stroke-width="3"/>
<path d="M741.623 47.2463L771.625 29.7368L801.627 47.2463V82.2934L771.625 99.8029L741.623 82.2934V47.2463Z" stroke="#6860E2" stroke-width="3"/>
<line y1="-1.5" x2="35.1475" y2="-1.5" transform="matrix(0.866976 0.49835 -0.482894 0.875679 741.983 47.9225)" stroke="#6860E2" stroke-width="3"/>
<line y1="-1.5" x2="36.7774" y2="-1.5" transform="matrix(0.0195856 0.999808 -0.999792 0.020415 770.545 63.2992)" stroke="#6860E2" stroke-width="3"/>
<line y1="-1.5" x2="36.1602" y2="-1.5" transform="matrix(0.863617 -0.504149 0.488629 0.872492 771.567 66.0675)" stroke="#6860E2" stroke-width="3"/>
<path d="M137.2 876.158C137.2 886.176 129.171 894.269 119.3 894.269C109.429 894.269 101.4 886.176 101.4 876.158C101.4 866.141 109.429 858.047 119.3 858.047C129.171 858.047 137.2 866.141 137.2 876.158Z" stroke="#6860E2" stroke-width="3"/>
<line x1="377.275" y1="77.0265" x2="377.275" y2="28" stroke="#F37A7A" stroke-width="3"/>
<line x1="354.525" y1="51.0132" x2="401.812" y2="51.0132" stroke="#F37A7A" stroke-width="3"/>
</svg>
