<svg width="75" height="75" viewBox="0 0 75 75" fill="none" xmlns="http://www.w3.org/2000/svg">
<path d="M33.6848 1.20132L37.5 1.00137L41.3152 1.20132L45.0885 1.79895L48.7787 2.78774L52.3453 4.15684L55.7493 5.89126L58.9534 7.972L61.9223 10.3762L64.6238 13.0777L67.028 16.0466L69.1087 19.2507L70.8432 22.6547L72.2122 26.2213L73.201 29.9115L73.7987 33.6849L73.9986 37.5L73.7987 41.3151L73.201 45.0885L72.2122 48.7787L70.8432 52.3453L69.1087 55.7493L67.028 58.9534L64.6238 61.9223L61.9223 64.6238L58.9534 67.028L55.7493 69.1087L52.3453 70.8432L48.7787 72.2122L45.0885 73.201L41.3151 73.7987L37.5 73.9986L33.6849 73.7987L29.9115 73.201L26.2213 72.2122L22.6547 70.8432L19.2507 69.1087L16.0466 67.028L13.0777 64.6238L10.3762 61.9223L7.972 58.9534L5.89126 55.7493L4.15684 52.3453L2.78774 48.7787L1.79895 45.0885L1.20132 41.3152L1.00137 37.5L1.20132 33.6848L1.79896 29.9115L2.78774 26.2213L4.15684 22.6547L5.89126 19.2507L7.97199 16.0466L10.3762 13.0776L13.0776 10.3762L16.0466 7.97199L19.2507 5.89126L22.6547 4.15684L26.2213 2.78774L29.9115 1.79896L33.6848 1.20132Z" stroke="url(#paint0_linear_416_207)" stroke-width="2"/>
<path d="M53.6167 51.1167H20.65C20.08 51.1173 19.5335 51.344 19.1304 51.7471C18.7273 52.1501 18.5006 52.6966 18.5 53.2667V56.85C18.5006 57.42 18.7273 57.9665 19.1304 58.3696C19.5335 58.7727 20.08 58.9994 20.65 59H53.6167C54.1867 58.9994 54.7332 58.7727 55.1363 58.3696C55.5393 57.9665 55.766 57.42 55.7667 56.85V53.2667C55.766 52.6966 55.5393 52.1501 55.1363 51.7471C54.7332 51.344 54.1867 51.1173 53.6167 51.1167ZM54.3333 56.85C54.3331 57.04 54.2576 57.2222 54.1232 57.3565C53.9889 57.4909 53.8067 57.5665 53.6167 57.5667H20.65C20.46 57.5665 20.2778 57.4909 20.1434 57.3565C20.0091 57.2222 19.9335 57.04 19.9333 56.85V53.2667C19.9335 53.0767 20.0091 52.8945 20.1434 52.7601C20.2778 52.6258 20.46 52.5502 20.65 52.55H53.6167C53.8067 52.5502 53.9889 52.6258 54.1232 52.7601C54.2576 52.8945 54.3331 53.0767 54.3333 53.2667V56.85ZM53.6167 36.7833H20.65C20.08 36.784 19.5335 37.0107 19.1304 37.4137C18.7273 37.8168 18.5006 38.3633 18.5 38.9333V46.8167C18.5006 47.3867 18.7273 47.9332 19.1304 48.3363C19.5335 48.7393 20.08 48.966 20.65 48.9667H53.6167C54.1867 48.966 54.7332 48.7393 55.1363 48.3363C55.5393 47.9332 55.766 47.3867 55.7667 46.8167V38.9333C55.766 38.3633 55.5393 37.8168 55.1363 37.4137C54.7332 37.0107 54.1867 36.784 53.6167 36.7833ZM54.3333 46.8167C54.3331 47.0067 54.2576 47.1889 54.1232 47.3232C53.9889 47.4576 53.8067 47.5331 53.6167 47.5333H20.65C20.46 47.5331 20.2778 47.4576 20.1434 47.3232C20.0091 47.1889 19.9335 47.0067 19.9333 46.8167V38.9333C19.9335 38.7433 20.0091 38.5611 20.1434 38.4268C20.2778 38.2924 20.46 38.2169 20.65 38.2167H53.6167C53.8067 38.2169 53.9889 38.2924 54.1232 38.4268C54.2576 38.5611 54.3331 38.7433 54.3333 38.9333V46.8167ZM53.6167 16H20.65C20.08 16.0006 19.5335 16.2273 19.1304 16.6304C18.7273 17.0335 18.5006 17.58 18.5 18.15V32.4833C18.5006 33.0534 18.7273 33.5999 19.1304 34.0029C19.5335 34.406 20.08 34.6327 20.65 34.6333H53.6167C54.1867 34.6327 54.7332 34.406 55.1363 34.0029C55.5393 33.5999 55.766 33.0534 55.7667 32.4833V18.15C55.766 17.58 55.5393 17.0335 55.1363 16.6304C54.7332 16.2273 54.1867 16.0006 53.6167 16ZM54.3333 32.4833C54.3331 32.6733 54.2576 32.8555 54.1232 32.9899C53.9889 33.1242 53.8067 33.1998 53.6167 33.2H20.65C20.46 33.1998 20.2778 33.1242 20.1434 32.9899C20.0091 32.8555 19.9335 32.6733 19.9333 32.4833V18.15C19.9335 17.96 20.0091 17.7778 20.1434 17.6434C20.2778 17.5091 20.46 17.4335 20.65 17.4333H53.6167C53.8067 17.4335 53.9889 17.5091 54.1232 17.6434C54.2576 17.7778 54.3331 17.96 54.3333 18.15V32.4833Z" fill="black"/>
<path d="M39.9132 20.7508L35.3416 25.3223L34.3534 24.3341C33.9484 23.9399 33.4044 23.721 32.8393 23.7248C32.2741 23.7287 31.7332 23.9549 31.3335 24.3545C30.9339 24.7542 30.7077 25.2951 30.7039 25.8603C30.7001 26.4255 30.919 26.9694 31.3132 27.3744L33.8215 29.8827C34.2259 30.2834 34.7723 30.5083 35.3416 30.5083C35.911 30.5083 36.4573 30.2834 36.8617 29.8827L42.9534 23.791C43.3493 23.3863 43.5697 22.8419 43.5666 22.2757C43.5635 21.7096 43.3372 21.1676 42.9369 20.7673C42.5366 20.367 41.9945 20.1407 41.4284 20.1376C40.8623 20.1345 40.3178 20.3548 39.9132 20.7508ZM41.94 22.7776L35.8483 28.8692C35.7117 28.9993 35.5302 29.0718 35.3416 29.0718C35.1529 29.0718 34.9715 28.9993 34.8349 28.8692L32.3266 26.3609C32.1936 26.2262 32.1193 26.0444 32.1199 25.8551C32.1205 25.6659 32.1959 25.4845 32.3298 25.3507C32.4636 25.2169 32.6449 25.1414 32.8342 25.1408C33.0235 25.1402 33.2053 25.2145 33.34 25.3475L34.8349 26.8424C34.9015 26.909 34.9805 26.9618 35.0674 26.9978C35.1543 27.0338 35.2475 27.0524 35.3416 27.0524C35.4357 27.0524 35.5289 27.0338 35.6159 26.9978C35.7028 26.9618 35.7818 26.909 35.8483 26.8424L40.9266 21.7642C41.062 21.6347 41.2427 21.5633 41.43 21.5653C41.6174 21.5674 41.7965 21.6427 41.929 21.7752C42.0614 21.9077 42.1368 22.0868 42.1388 22.2741C42.1409 22.4615 42.0695 22.6422 41.94 22.7776Z" fill="black"/>
<defs>
<linearGradient id="paint0_linear_416_207" x1="69.6429" y1="75" x2="-9.86444" y2="24.6315" gradientUnits="userSpaceOnUse">
<stop stop-color="#0D54BE"/>
<stop offset="1" stop-color="#20ECD3"/>
</linearGradient>
</defs>
</svg>
