<svg width="30" height="31" viewBox="0 0 30 31" fill="none" xmlns="http://www.w3.org/2000/svg">
<path d="M0.57803 22.7435C1.84538 22.5887 3.13052 22.7554 4.39787 22.5472C5.03446 22.4461 5.61758 22.2319 6.19472 22.0058C4.76679 21.0896 3.48153 20.0424 2.2857 18.787C1.85732 18.3407 2.16666 17.591 2.79145 17.5732C3.30317 17.597 3.80294 17.5554 4.29077 17.4542C3.04718 15.8775 2.08333 14.1818 1.33366 12.2778C1.13142 11.7661 1.72634 11.2485 2.20833 11.4031C2.48795 11.5162 2.77353 11.5936 3.06509 11.653C2.17861 9.52295 1.99415 7.37508 2.48795 5.01887C2.60101 4.47743 3.31498 4.34658 3.67793 4.70356C6.52198 7.49983 10.1157 8.84455 13.9593 9.48712C13.6201 6.85726 15.4885 4.06086 17.9397 3.14452C19.9746 2.38889 22.7056 2.90657 24.0741 4.62009C24.9904 4.04295 26.2576 3.85251 27.2751 3.67402C27.8106 3.58471 28.3283 4.10837 28.0129 4.63787C27.644 5.25668 27.293 5.91704 26.9063 6.54779C27.6917 6.31569 28.5009 6.1729 29.31 6.07177C29.8931 5.9944 30.2441 6.89283 29.798 7.24981C28.8519 8.00545 27.9118 8.86818 26.9063 9.55838C26.8766 16.2401 24.925 21.8449 18.9573 25.6469C13.983 28.8243 4.73694 28.2888 0.411481 23.9632H0.40551C0.215076 23.9156 0.113953 23.7728 0.0782549 23.6182C-0.0882935 23.3683 0.030614 23.0589 0.250775 22.9399C0.334114 22.8386 0.441208 22.7613 0.57803 22.7435Z" fill="white"/>
</svg>
