<svg width="420" height="349" viewBox="0 0 420 349" fill="none" xmlns="http://www.w3.org/2000/svg">
<g clip-path="url(#clip0_430_190)">
<path d="M311.347 297.008C338.599 275.439 360.881 251.759 375.228 221.549C389.495 191.273 395.907 154.467 378.434 128.544C360.881 102.556 319.523 87.4507 275.36 70.9605C231.276 54.4043 184.388 36.397 143.511 43.6527C102.634 50.8424 67.8481 83.2952 47.5699 119.178C27.3718 155.127 21.7612 194.505 29.0549 232.631C36.4289 270.756 56.7071 307.562 90.6912 328.142C124.595 348.722 172.125 353.075 212.04 345.556C251.955 337.97 284.176 318.578 311.347 297.008Z" fill="#F2F2F2"/>
<path d="M419.5 324.285H0.5V325.295H419.5V324.285Z" fill="#343D68"/>
<path d="M263.389 151.347C263.389 151.347 244.595 166.651 253.992 170.129C263.389 173.607 269.43 157.608 269.43 157.608L263.389 151.347Z" fill="#E9C1A1"/>
<path d="M264.06 145.782L260.033 152.738C260.033 152.738 266.745 152.738 268.087 163.173L273.457 156.217L264.06 145.782Z" fill="#CFCCE0"/>
<path d="M353.331 304.386L354.002 325.255L345.947 330.124L342.592 328.038L343.263 304.386H353.331Z" fill="#E9C1A1"/>
<path d="M305.675 298.821L307.017 321.081L288.223 329.429L289.566 317.603C289.566 317.603 294.935 308.56 293.593 298.821H305.675Z" fill="#E9C1A1"/>
<path d="M334.537 131.174C334.537 131.174 345.276 160.39 347.29 178.477C349.303 196.563 352.659 244.562 352.659 244.562L359.372 306.473L340.578 309.256L332.523 246.649L314.401 184.738L310.373 246.649L307.017 302.995L289.566 303.691L288.223 245.257L280.84 170.825L284.867 135.348L334.537 131.174Z" fill="#2F2E41"/>
<path d="M344.605 326.646C344.605 326.646 345.706 314.963 353.881 321.5L355.344 320.386L362.056 335.69C362.056 335.69 370.111 347.515 356.016 348.907C341.92 350.298 343.263 335.69 343.263 335.69L341.92 329.429L342.591 325.329L344.605 326.646Z" fill="#2F2E41"/>
<path d="M305.675 312.734C307.327 313.713 308.696 315.132 309.64 316.845C310.585 318.557 311.069 320.5 311.045 322.472C311.045 329.429 310.373 330.124 310.373 330.124L300.305 332.907C300.305 332.907 293.593 332.211 289.566 336.385C285.539 340.559 265.402 343.341 265.402 337.776C265.402 332.211 282.183 323.168 282.183 323.168C282.183 323.168 287.166 314.446 290.715 315.329C294.264 316.212 295.607 317.603 295.607 318.299C295.607 318.994 293.593 323.864 293.593 323.864C293.593 323.864 305.004 321.081 305.675 312.734Z" fill="#2F2E41"/>
<path d="M304.332 45.6111C313.6 45.6111 321.113 37.825 321.113 28.2203C321.113 18.6157 313.6 10.8295 304.332 10.8295C295.065 10.8295 287.552 18.6157 287.552 28.2203C287.552 37.825 295.065 45.6111 304.332 45.6111Z" fill="#E9C1A1"/>
<path d="M316.75 32.7419L324.133 50.1327L303.997 80.0449C303.997 80.0449 302.654 47.3502 298.627 41.7852C294.6 36.2201 316.75 32.7419 316.75 32.7419Z" fill="#E9C1A1"/>
<path d="M307.353 68.9149L310.709 59.8718L313.394 60.5672L316.75 57.7846L321.448 42.4809L328.16 47.3502L336.886 138.478L282.518 139.869L289.902 76.5667L296.614 58.4805L301.459 51.8422L304.668 61.9585L307.353 68.9149Z" fill="#CFCCE0"/>
<path d="M322.791 107.87L324.844 44.9447C324.844 44.9447 328.831 45.2633 330.174 47.3502C331.516 49.4371 353.666 53.6109 353.666 53.6109L349.639 118.305C349.639 118.305 366.419 169.781 360.378 172.564C354.337 175.347 343.598 174.651 343.598 174.651L322.791 107.87Z" fill="#575A89"/>
<path d="M290.237 99.8704L297.358 57.4611L281.511 68.567L285.539 99.1748L282.183 120.044C282.183 120.044 269.43 177.781 273.457 179.868C277.484 181.955 282.183 179.868 282.183 179.868L290.237 121.435V99.8704Z" fill="#575A89"/>
<path d="M286.21 67.1757L281.511 68.567L279.498 96.3923L276.142 120.739L260.033 150.652C260.033 150.652 268.087 145.086 271.443 161.086L289.184 129.075L286.21 67.1757Z" fill="#575A89"/>
<path d="M338.564 145.782C338.564 145.782 319.77 161.086 329.167 164.564C338.564 168.042 344.605 152.043 344.605 152.043L338.564 145.782Z" fill="#E9C1A1"/>
<path d="M349.975 153.434L343.934 161.086L335.879 146.478L339.235 140.217L349.975 153.434Z" fill="#CFCCE0"/>
<path d="M348.632 56.0456L354.002 53.2631C354.002 53.2631 358.029 58.8281 358.7 63.6976C359.371 68.567 362.727 74.8277 362.727 78.3058C362.727 81.784 372.124 114.479 372.124 114.479L350.646 159.695C350.646 159.695 345.947 143 335.879 141.608L352.659 117.261L343.262 99.8704L348.632 56.0456Z" fill="#575A89"/>
<path d="M318.38 11.6506L321.544 10.3377C321.544 10.3377 314.928 2.78858 305.723 3.44506L308.312 0.491011C308.312 0.491011 301.983 -2.13476 296.23 4.75792C293.206 8.38124 289.706 12.6403 287.525 17.438H284.136L285.55 20.6656L280.6 23.8931L285.681 23.3134C285.378 25.0808 285.332 26.8851 285.543 28.6668C285.761 30.449 286.639 32.0737 287.991 33.1981V33.1981C287.991 33.1981 291.915 24.7796 291.915 23.4667V26.7489C291.915 26.7489 295.079 23.7949 295.079 21.8256L296.805 24.1231L297.668 20.5126L308.312 24.1231L306.586 21.1691L313.202 22.1538L310.613 18.5433C310.613 18.5433 318.092 22.8102 318.38 26.4207C318.668 30.0311 320.857 33.4522 320.857 33.4522C320.857 33.4522 326.722 16.574 318.38 11.6506Z" fill="#2F2E41"/>
<path d="M318.092 27.8725C319.13 27.8725 319.972 26.7824 319.972 25.4378C319.972 24.0931 319.13 23.0031 318.092 23.0031C317.054 23.0031 316.213 24.0931 316.213 25.4378C316.213 26.7824 317.054 27.8725 318.092 27.8725Z" fill="#E9C1A1"/>
<path d="M78.168 143.373H20.2261V126.546H50.4707L78.168 143.373Z" fill="#4F47C8"/>
<path d="M20.0669 141.064V190.226H208.219V141.064H20.0669ZM93.4495 181.977H32.3239V175.048H93.4495V181.977ZM195.962 169.109H32.3239V162.18H195.962V169.109ZM195.962 156.241H32.3239V149.312H195.962V156.241Z" fill="#343D68"/>
<path d="M78.168 63.8563H20.2261V47.0288H50.4707L78.168 63.8563Z" fill="#4F47C8"/>
<path d="M20.0669 62.5364V111.698H208.219V62.5364H20.0669ZM93.4495 103.45H32.3239V96.5209H93.4495V103.45ZM128.788 90.5819H32.3239V83.653H128.788L128.788 90.5819ZM195.962 77.7139H32.3239V70.7851H195.962V77.7139Z" fill="#343D68"/>
<path d="M78.168 221.241H20.2261V204.414H50.4707L78.168 221.241Z" fill="#4F47C8"/>
<path d="M20.0669 217.941V267.104H208.219V217.941H20.0669ZM128.788 258.855H32.3239V251.926H128.788V258.855ZM128.788 245.987H32.3239V239.058H128.788V245.987ZM195.962 233.119H32.3239V226.19H195.962V233.119Z" fill="#343D68"/>
<path d="M261.545 100.81H234.802V73.0946H252.949V73.7545H235.439V100.151H260.908V86.9525H261.545V100.81Z" fill="#343D68"/>
<path d="M248.036 93.5811C247.418 91.6899 239.668 85.2613 244.417 84.1808L248.312 89.5624L266.216 71.0068L268.017 72.873L248.036 93.5811Z" fill="#4F47C8"/>
<path d="M261.545 179.338H234.802V151.622H252.949V152.282H235.439V178.678H260.908V165.48H261.545V179.338Z" fill="#343D68"/>
<path d="M248.036 172.108C247.418 170.217 239.668 163.789 244.417 162.708L248.312 168.09L266.216 149.534L268.017 151.4L248.036 172.108Z" fill="#4F47C8"/>
<path d="M261.545 257.535H234.802V229.82H252.949V230.479H235.439V256.875H260.908V243.677H261.545V257.535Z" fill="#343D68"/>
<path d="M248.036 250.306C247.418 248.415 239.668 241.986 244.417 240.906L248.312 246.287L266.216 227.732L268.017 229.598L248.036 250.306Z" fill="#4F47C8"/>
</g>
<defs>
<clipPath id="clip0_430_190">
<rect width="419" height="349" fill="white" transform="translate(0.5)"/>
</clipPath>
</defs>
</svg>
