<svg width="30" height="31" viewBox="0 0 30 31" fill="none" xmlns="http://www.w3.org/2000/svg">
<g clip-path="url(#clip0_430_235)">
<path d="M4.40904 24.4298L4.83954 23.4253L4.22665 22.5204C2.76895 20.3683 2 17.8616 2 15.2432C2 11.7669 3.34949 8.50877 5.80756 6.05075C8.26567 3.59269 11.5238 2.24316 15 2.24316C18.4762 2.24316 21.7344 3.5927 24.1924 6.05072C26.6504 8.50885 28 11.767 28 15.2432C28 18.7194 26.6504 21.9775 24.1924 24.4356C21.7344 26.8936 18.4762 28.2432 15 28.2432C12.2899 28.2432 9.71296 27.4249 7.51472 25.8724L6.55827 25.1969L5.50107 25.7003L3.44496 26.6794L4.40904 24.4298Z" stroke="white" stroke-width="4"/>
<path d="M22.9916 20.3198L22.542 17.8846C22.5048 17.6835 22.349 17.5252 22.1484 17.4851L18.6129 16.778C18.4487 16.7453 18.2795 16.7966 18.1612 16.9148L16.7249 18.3511C14.3048 17.2667 12.9616 15.9208 11.7798 13.3967L13.2115 11.9649C13.3298 11.8468 13.381 11.6772 13.3483 11.5133L12.6412 7.97776C12.601 7.77719 12.4428 7.62127 12.2416 7.58412L9.8064 7.13453C9.73972 7.12223 9.67104 7.12358 9.60483 7.13863C8.96182 7.28477 8.37512 7.60873 7.90819 8.07578C7.09954 8.88444 6.79052 10.0643 7.01452 11.4881C7.39057 13.8788 8.56192 17.2059 10.7229 19.3754L10.7523 19.4047C12.9203 21.5642 16.2473 22.7355 18.638 23.1116C18.9392 23.159 19.2293 23.1825 19.5074 23.1825C20.5442 23.1825 21.4127 22.8555 22.0504 22.218C22.5174 21.7509 22.8414 21.1642 22.9875 20.5213C23.0026 20.4551 23.004 20.3865 22.9916 20.3198Z" fill="white"/>
</g>
<defs>
<clipPath id="clip0_430_235">
<rect width="30" height="30" fill="white" transform="translate(0 0.243164)"/>
</clipPath>
</defs>
</svg>
