<svg width="65" height="66" viewBox="0 0 65 66" fill="none" xmlns="http://www.w3.org/2000/svg">
<g clip-path="url(#clip0)">
<path d="M55.4809 9.62002C49.3426 3.48158 41.1811 0.101074 32.5 0.101074C23.8189 0.101074 15.6575 3.48158 9.51895 9.62002C3.38038 15.7585 0 23.92 0 32.6011C0 39.1373 1.92385 45.4155 5.56994 50.7985L0.0875977 63.5911C-0.0829004 63.989 0.0105371 64.4754 0.315859 64.782C0.632607 65.1002 1.14347 65.189 1.54908 64.9958L13.782 59.1706C19.2788 63.0528 25.7361 65.1011 32.5 65.1011C41.1811 65.1011 49.3426 61.7206 55.4809 55.5821C61.6194 49.4436 65 41.2821 65 32.6011C65 23.92 61.6194 15.7586 55.4809 9.62002Z" fill="#20A83E"/>
<path d="M32.5 59.6844C47.4577 59.6844 59.5833 47.5588 59.5833 32.6011C59.5833 17.6434 47.4577 5.51782 32.5 5.51782C17.5423 5.51782 5.41669 17.6434 5.41669 32.6011C5.41669 47.5588 17.5423 59.6844 32.5 59.6844Z" fill="#E5E5E5"/>
<path d="M32.5 56.4344C45.6627 56.4344 56.3333 45.7639 56.3333 32.6011C56.3333 19.4383 45.6627 8.76782 32.5 8.76782C19.3372 8.76782 8.66669 19.4383 8.66669 32.6011C8.66669 45.7639 19.3372 56.4344 32.5 56.4344Z" fill="white"/>
<path d="M49.8153 43.6004L48.8412 38.3241C48.7605 37.8884 48.4229 37.5455 47.9883 37.4586L40.3281 35.9266C39.9723 35.8556 39.6056 35.9669 39.3494 36.2229L36.2373 39.3351C30.9938 36.9855 28.0836 34.0693 25.5229 28.6005L28.625 25.4983C28.8812 25.2422 28.9923 24.875 28.9213 24.5197L27.3893 16.8594C27.3023 16.4248 26.9594 16.087 26.5236 16.0065L21.2473 15.0324C21.1028 15.0058 20.954 15.0087 20.8106 15.0413C19.4174 15.3579 18.1462 16.0598 17.1345 17.0718C15.3824 18.8239 14.7129 21.3803 15.1982 24.4652C16.013 29.645 18.5509 36.8536 23.2329 41.5543L23.2967 41.6178C27.9941 46.2967 35.2026 48.8346 40.3824 49.6495C41.0349 49.7522 41.6636 49.8031 42.2661 49.8031C44.5124 49.8031 46.3943 49.0946 47.7759 47.7132C48.7877 46.7013 49.4898 45.4301 49.8063 44.037C49.839 43.8937 49.8421 43.745 49.8153 43.6004Z" fill="#20A83E"/>
<path d="M44.4331 47.8897C43.8304 47.8897 43.2019 47.8387 42.5494 47.736C37.3695 46.9211 30.1609 44.3832 25.4636 39.7044L25.3999 39.6409C20.7179 34.9402 18.1801 27.7315 17.3652 22.5517C16.9433 19.8707 17.3951 17.5894 18.6706 15.8877C18.1135 16.2133 17.5968 16.6099 17.1349 17.0719C15.3828 18.824 14.7132 21.3804 15.1986 24.4653C16.0134 29.6451 18.5513 36.8537 23.2333 41.5544L23.297 41.6179C27.9944 46.2968 35.203 48.8347 40.3828 49.6496C41.0353 49.7523 41.664 49.8032 42.2665 49.8032C44.5128 49.8032 46.3946 49.0947 47.7763 47.7133C48.0269 47.4627 48.2583 47.196 48.4698 46.9155C47.3214 47.5606 45.9617 47.8897 44.4331 47.8897Z" fill="#189433"/>
</g>
<defs>
<clipPath id="clip0">
<rect width="65" height="65" fill="white" transform="translate(0 0.101074)"/>
</clipPath>
</defs>
</svg>
