<svg width="28" height="28" viewBox="0 0 28 28" fill="none" xmlns="http://www.w3.org/2000/svg">
<path d="M7.19238 17.3709C7.27526 17.5145 7.41177 17.6192 7.57189 17.6621C7.732 17.705 7.90259 17.6825 8.04615 17.5997L18.6474 11.479L17.6655 15.1434C17.6259 15.3024 17.6502 15.4706 17.7334 15.6118C17.8166 15.7531 17.9519 15.8559 18.1102 15.8984C18.2685 15.9408 18.4371 15.9193 18.5797 15.8386C18.7224 15.7579 18.8276 15.6244 18.8727 15.4669L20.2453 10.3443C20.2667 10.2656 20.2722 10.1834 20.2617 10.1026C20.2512 10.0217 20.2248 9.9437 20.184 9.87307L20.1828 9.8709C20.1421 9.80054 20.0874 9.7383 20.0212 9.68851C19.9563 9.63847 19.8821 9.6018 19.803 9.58064L14.6804 8.20805C14.5214 8.16839 14.3532 8.19277 14.212 8.27594C14.0708 8.35911 13.9679 8.49441 13.9255 8.65271C13.883 8.811 13.9045 8.97963 13.9852 9.12226C14.0659 9.26489 14.1994 9.37011 14.3569 9.41527L18.0224 10.3965L7.42115 16.5171C7.27759 16.6 7.17285 16.7365 7.12994 16.8966C7.08704 17.0568 7.1095 17.2274 7.19238 17.3709V17.3709Z" fill="white"/>
</svg>
