<svg width="76" height="75" viewBox="0 0 76 75" fill="none" xmlns="http://www.w3.org/2000/svg">
<path d="M34.1848 1.20132L38 1.00137L41.8152 1.20132L45.5885 1.79895L49.2787 2.78774L52.8453 4.15684L56.2493 5.89126L59.4534 7.972L62.4223 10.3762L65.1238 13.0777L67.528 16.0466L69.6087 19.2507L71.3432 22.6547L72.7122 26.2213L73.701 29.9115L74.2987 33.6849L74.4986 37.5L74.2987 41.3151L73.701 45.0885L72.7122 48.7787L71.3432 52.3453L69.6087 55.7493L67.528 58.9534L65.1238 61.9223L62.4223 64.6238L59.4534 67.028L56.2493 69.1087L52.8453 70.8432L49.2787 72.2122L45.5885 73.201L41.8151 73.7987L38 73.9986L34.1849 73.7987L30.4115 73.201L26.7213 72.2122L23.1547 70.8432L19.7507 69.1087L16.5466 67.028L13.5777 64.6238L10.8762 61.9223L8.472 58.9534L6.39126 55.7493L4.65684 52.3453L3.28774 48.7787L2.29895 45.0885L1.70132 41.3152L1.50137 37.5L1.70132 33.6848L2.29896 29.9115L3.28774 26.2213L4.65684 22.6547L6.39126 19.2507L8.47199 16.0466L10.8762 13.0776L13.5776 10.3762L16.5466 7.97199L19.7507 5.89126L23.1547 4.15684L26.7213 2.78774L30.4115 1.79896L34.1848 1.20132Z" stroke="url(#paint0_linear_416_197)" stroke-width="2"/>
<path fill-rule="evenodd" clip-rule="evenodd" d="M18.25 45.5V21.5C18.25 20.5054 18.6451 19.5516 19.3483 18.8483C20.0516 18.1451 21.0054 17.75 22 17.75H46C46.9946 17.75 47.9484 18.1451 48.6516 18.8483C49.3549 19.5516 49.75 20.5054 49.75 21.5V35.3555L52.7875 32.3165C53.2096 31.8951 53.7818 31.6584 54.3783 31.6584C54.9748 31.6584 55.5469 31.8951 55.969 32.3165L58.0915 34.439C58.5129 34.8611 58.7496 35.4333 58.7496 36.0297C58.7496 36.6262 58.5129 37.1984 58.0915 37.6205L49.75 45.962V54.5C49.75 55.4946 49.3549 56.4484 48.6516 57.1516C47.9484 57.8549 46.9946 58.25 46 58.25H27.9835C27.8698 58.248 27.758 58.22 27.6568 58.1679C27.5556 58.1159 27.4678 58.0414 27.4 57.95L18.4 45.95L18.3565 45.8855C18.2882 45.7711 18.2514 45.6407 18.25 45.5075V45.5ZM48.2515 36.8525L48.25 36.803V21.5C48.2488 20.9036 48.0114 20.332 47.5897 19.9103C47.168 19.4886 46.5964 19.2512 46 19.25H22C21.4036 19.2512 20.832 19.4886 20.4103 19.9103C19.9886 20.332 19.7512 20.9036 19.75 21.5V44.75H25C25.9946 44.75 26.9484 45.1451 27.6517 45.8484C28.3549 46.5516 28.75 47.5054 28.75 48.5V56.75H46C46.5967 56.75 47.169 56.5129 47.591 56.091C48.0129 55.669 48.25 55.0967 48.25 54.5V47.462L43.2415 52.469L43.234 52.478C43.1279 52.5807 42.9938 52.6496 42.8485 52.676L37.555 53.735C37.4339 53.7599 37.3085 53.7543 37.1901 53.7188C37.0717 53.6833 36.9639 53.6189 36.8765 53.5315C36.7891 53.4441 36.7247 53.3363 36.6892 53.2179C36.6537 53.0995 36.6481 52.9741 36.673 52.853L37.732 47.5595C37.758 47.4146 37.827 47.2808 37.93 47.1755L37.939 47.165L48.2515 36.8525ZM20.5 46.25L27.25 55.25V48.5C27.25 47.9033 27.0129 47.331 26.591 46.909C26.169 46.4871 25.5967 46.25 25 46.25H20.5ZM38.3635 52.0445L41.1895 51.479L38.929 49.2185L38.3635 52.0445ZM54.379 39.212L51.196 36.029L39.529 47.696L42.712 50.879L54.379 39.212ZM41.5 37.25H26.5C26.3011 37.25 26.1103 37.329 25.9697 37.4697C25.829 37.6103 25.75 37.8011 25.75 38C25.75 38.1989 25.829 38.3897 25.9697 38.5303C26.1103 38.671 26.3011 38.75 26.5 38.75H41.5C41.6989 38.75 41.8897 38.671 42.0303 38.5303C42.171 38.3897 42.25 38.1989 42.25 38C42.25 37.8011 42.171 37.6103 42.0303 37.4697C41.8897 37.329 41.6989 37.25 41.5 37.25ZM55.4395 38.1515L57.031 36.56C57.1716 36.4194 57.2506 36.2286 57.2506 36.0297C57.2506 35.8309 57.1716 35.6401 57.031 35.4995L54.9085 33.3785C54.839 33.3087 54.7563 33.2533 54.6653 33.2155C54.5743 33.1777 54.4768 33.1583 54.3783 33.1583C54.2797 33.1583 54.1822 33.1777 54.0912 33.2155C54.0002 33.2533 53.9175 33.3087 53.848 33.3785L52.258 34.9685L55.4395 38.1515ZM41.5 31.25H26.5C26.3011 31.25 26.1103 31.329 25.9697 31.4697C25.829 31.6103 25.75 31.8011 25.75 32C25.75 32.1989 25.829 32.3897 25.9697 32.5303C26.1103 32.671 26.3011 32.75 26.5 32.75H41.5C41.6989 32.75 41.8897 32.671 42.0303 32.5303C42.171 32.3897 42.25 32.1989 42.25 32C42.25 31.8011 42.171 31.6103 42.0303 31.4697C41.8897 31.329 41.6989 31.25 41.5 31.25ZM37 25.25H26.5C26.3011 25.25 26.1103 25.329 25.9697 25.4697C25.829 25.6103 25.75 25.8011 25.75 26C25.75 26.1989 25.829 26.3897 25.9697 26.5303C26.1103 26.671 26.3011 26.75 26.5 26.75H37C37.1989 26.75 37.3897 26.671 37.5303 26.5303C37.671 26.3897 37.75 26.1989 37.75 26C37.75 25.8011 37.671 25.6103 37.5303 25.4697C37.3897 25.329 37.1989 25.25 37 25.25Z" fill="black"/>
<defs>
<linearGradient id="paint0_linear_416_197" x1="70.1429" y1="75" x2="-9.36444" y2="24.6315" gradientUnits="userSpaceOnUse">
<stop stop-color="#0D54BE"/>
<stop offset="1" stop-color="#20ECD3"/>
</linearGradient>
</defs>
</svg>
